<?xml version="1.0" encoding="UTF-8" standalone="no"?>
<!-- Created with Inkscape (http://www.inkscape.org/) -->

<svg
   width="36.361252mm"
   height="47.910927mm"
   viewBox="0 0 36.361252 47.910927"
   version="1.1"
   id="svg1103"
   inkscape:version="1.2.2 (b0a8486541, 2022-12-01)"
   sodipodi:docname="ESWEBLOGO.svg"
   xmlns:inkscape="http://www.inkscape.org/namespaces/inkscape"
   xmlns:sodipodi="http://sodipodi.sourceforge.net/DTD/sodipodi-0.dtd"
   xmlns="http://www.w3.org/2000/svg"
   xmlns:svg="http://www.w3.org/2000/svg">
  <sodipodi:namedview
     id="namedview1105"
     pagecolor="#a8a8a8"
     bordercolor="#000000"
     borderopacity="0.25"
     inkscape:showpageshadow="2"
     inkscape:pageopacity="0"
     inkscape:pagecheckerboard="0"
     inkscape:deskcolor="#d1d1d1"
     inkscape:document-units="mm"
     showgrid="false"
     inkscape:zoom="0.77326038"
     inkscape:cx="182.34479"
     inkscape:cy="439.69665"
     inkscape:window-width="1920"
     inkscape:window-height="1052"
     inkscape:window-x="0"
     inkscape:window-y="0"
     inkscape:window-maximized="1"
     inkscape:current-layer="layer1" />
  <defs
     id="defs1100" />
  <g
     inkscape:label="Layer 1"
     inkscape:groupmode="layer"
     id="layer1"
     transform="translate(-56.695917,-32.272058)">
    <path
       style="fill:#ffffff;stroke:none;stroke-width:0.118506"
       d="m 62.755169,48.956734 c -0.5015,0 -1.30294,0.15048 -1.74512,-0.12181 -0.75107,-0.46253 -0.83329,-1.40845 -1.92856,-1.40856 -1.92473,-9e-5 -2.48656,2.87353 -0.59253,3.4676 1.38627,0.4348 1.58871,-0.67821 2.51388,-1.22287 0.40536,-0.23866 1.06187,-0.12181 1.51533,-0.12181 l -0.23246,3.08116 0.82487,4.26621 c -0.58325,0 -1.58954,0.19303 -2.10065,-0.12181 -0.89974,-0.55413 -1.03925,-1.6957 -2.40249,-1.30736 -1.82275,0.51906 -1.64563,3.2204 0.23678,3.49012 1.67818,0.24058 2.49304,-2.54918 4.47204,-1.34658 0.41708,0.25337 0.62028,0.90052 0.86832,1.30024 0.47439,0.7646 1.03008,1.48571 1.65616,2.13264 0.83117,0.85893 1.80302,1.60824 2.83949,2.20148 0.50091,0.28667 1.462,0.52747 1.77425,1.03124 0.55616,0.89721 0.12178,3.18353 0.12178,4.23363 -1.51771,0.34851 -2.04044,2.461 -0.59075,3.30749 1.18542,0.69231 2.75196,-0.27655 2.69079,-1.64843 -0.0472,-1.05882 -1.09498,-1.13587 -1.43603,-1.92131 -0.42769,-0.98514 -0.0715,-2.81239 -0.0715,-3.88546 2.45296,0.50625 4.91822,0.9164 7.34735,0 0,1.07627 0.35458,2.89641 -0.0715,3.8858 -0.38881,0.90303 -1.46175,0.91191 -1.37974,2.158 0.13103,1.99494 3.06514,2.17376 3.48632,0.23709 0.29535,-1.35881 -0.85679,-1.4139 -1.2526,-2.38258 -0.43931,-1.07531 -0.0715,-2.97437 -0.0715,-4.13525 2.26628,-0.39024 4.4755,-2.40543 5.82872,-4.14771 0.48562,-0.62523 0.91605,-1.95286 1.56485,-2.3668 1.83816,-1.17261 2.69779,1.65719 4.45702,1.25356 1.81763,-0.41714 1.58122,-3.00235 -0.11839,-3.39378 -1.28413,-0.29579 -1.44057,0.78451 -2.2841,1.30404 -0.46548,0.28667 -1.3346,0.12182 -1.86363,0.12182 0.93325,-2.42286 0.91404,-4.81668 0.59254,-7.34737 0.36263,0 0.82824,-0.0721 1.16929,0.0715 0.43447,0.18298 0.58887,0.75844 0.96904,1.03622 1.02732,0.75061 2.58769,0.15027 2.79947,-1.10768 0.17419,-1.03432 -0.63758,-2.16392 -1.73815,-2.10739 -1.30531,0.0671 -1.73053,2.00856 -3.06538,1.4434 -0.79127,-0.33513 -1.28176,-2.61744 -1.7572,-3.36521 -0.98101,-1.54283 -2.28799,-2.907293 -3.82832,-3.900088 -0.66129,-0.42622 -2.18955,-0.836652 -2.60382,-1.479311 -0.38859,-0.602554 -0.35872,-3.577008 0,-4.194802 0.48303,-0.831935 1.49955,-1.079968 1.25355,-2.276392 -0.39796,-1.934752 -3.27303,-1.827064 -3.55482,0.118514 -0.18375,1.268546 1.02318,1.372156 1.39694,2.26697 0.43219,1.035113 0.0715,2.893027 0.0715,4.013843 -2.57573,-0.814799 -4.76632,-0.347564 -7.34738,0 0,-1.117712 -0.36251,-2.982497 0.0715,-4.013476 0.38538,-0.915268 1.68589,-1.060428 1.40431,-2.385844 -0.40731,-1.917429 -3.30929,-1.846593 -3.56524,0.118513 -0.16002,1.228765 0.87291,1.350124 1.37511,2.165565 0.39926,0.648239 0.33812,3.39888 0.0502,4.102818 -0.34959,0.854854 -2.27956,1.351335 -3.00967,1.922701 -2.1178,1.657229 -4.32402,4.200719 -4.74023,6.977679 m 8.0584,-16.053625 c 1.36469,-0.0911 1.51142,2.087741 0.11839,2.16611 -1.40857,0.07927 -1.51321,-2.073001 -0.11839,-2.16611 m 7.93988,-4.69e-4 c 1.35227,-0.106551 1.58751,1.987606 0.23678,2.156701 -1.45132,0.181717 -1.68243,-2.042793 -0.23678,-2.156701 m -4.26621,7.318473 c 6.94399,-0.817077 13.00758,6.135001 12.55097,12.764821 -0.40779,5.92091 -5.13829,10.66968 -11.01038,11.23792 -8.86343,0.85774 -15.57834,-8.57308 -12.1027,-16.6892 1.90661,-4.452264 5.93185,-6.768699 10.56211,-7.313528 m -6.75484,14.305378 c 0.065,0.36548 0.40209,0.89212 0.2895,1.25332 -0.20687,0.66316 -1.0919,0.90527 -1.05753,1.70886 0.0315,0.73568 0.88771,1.30629 1.36057,1.77806 0.38809,0.38728 0.81519,0.94983 1.42207,0.91866 0.73994,-0.0379 1.02164,-0.78712 1.65906,-0.99498 0.36347,-0.11839 0.82269,0.13248 1.18508,0.19482 0,0.66755 -0.13165,1.54769 0.3203,2.10609 0.53103,0.65617 3.39438,0.66079 3.98704,0.0681 0.66847,-0.66849 -0.10976,-1.84751 0.90917,-2.27804 1.00647,-0.4252 1.26505,0.74493 2.13133,0.89235 0.94981,0.16152 1.92785,-1.1123 2.46576,-1.73659 1.28956,-1.49684 -1.03327,-2.03806 -0.45886,-3.31591 0.45269,-1.00706 1.6656,-0.24566 2.31641,-0.98336 0.57275,-0.64906 0.55819,-3.32646 -0.10729,-3.91283 -0.52662,-0.46407 -1.43758,-0.32032 -2.08345,-0.32032 -0.0623,-0.36239 -0.31321,-0.82161 -0.19485,-1.18506 0.20872,-0.63958 0.98609,-0.91392 1.00459,-1.65909 0.0123,-0.55804 -0.44973,-0.94093 -0.80987,-1.30356 -0.48897,-0.49239 -1.14144,-1.42717 -1.89597,-1.47742 -0.75134,-0.05 -1.1186,0.76887 -1.74382,1.01477 -0.35884,0.14114 -0.85407,-0.18332 -1.21883,-0.24837 0,-0.58542 0.16772,-1.49235 -0.20657,-1.987588 -0.47414,-0.627308 -3.41605,-0.664946 -4.01013,-0.176105 -0.83369,0.686153 0.0768,1.940653 -1.11207,2.374973 -0.78248,0.28584 -1.18563,-0.77562 -1.90022,-0.95835 -0.9638,-0.2465 -2.04744,1.18743 -2.59139,1.81361 -1.24686,1.43558 1.06693,1.98604 0.5219,3.20203 -0.46002,1.02626 -1.69036,0.22149 -2.34742,0.99533 -0.49804,0.58649 -0.45075,3.51726 0.17758,3.99211 0.50886,0.38456 1.38708,0.22445 1.98754,0.22445 m 5.94282,-11.1866 c 0.44868,-0.195778 2.51459,-0.285619 2.75516,0.20323 0.45815,0.93122 -0.23893,1.71099 1.01961,2.25896 0.42047,0.18323 0.93371,0.40743 1.36994,0.15428 0.45151,-0.26212 0.91296,-1.22097 1.54237,-0.90183 0.48053,0.24353 1.91373,1.54366 1.76892,2.12458 -0.28858,1.15851 -1.36424,1.09949 -0.76886,2.48862 0.58791,1.37147 1.44908,0.39841 2.29689,1.06987 0.40598,0.32151 0.29166,2.23562 0.15231,2.70478 -0.23278,0.78404 -1.84492,0.10193 -2.32594,1.08587 -0.19177,0.39261 -0.50612,0.98182 -0.3285,1.42029 0.21365,0.52736 0.94937,0.83903 1.02592,1.42207 0.0786,0.59905 -1.3588,1.91636 -1.889,2.08488 -0.88784,0.28204 -1.2501,-1.28863 -2.25161,-0.98727 -1.75615,0.52865 -0.86486,1.26292 -1.56179,2.44003 -0.34401,0.58104 -2.24522,0.5385 -2.80539,0.28513 -0.61066,-0.27637 -0.27963,-1.17416 -0.42448,-1.68788 -0.17111,-0.60723 -0.92791,-0.91771 -1.48915,-1.06857 -0.97247,-0.26132 -1.44625,1.37384 -2.34996,0.90846 -0.45793,-0.23594 -1.83542,-1.41614 -1.70923,-1.98544 0.25898,-1.16883 1.38344,-1.08078 0.81165,-2.47796 -0.20379,-0.49785 -0.44747,-0.93466 -1.0188,-1.03954 -0.44936,-0.0823 -1.32973,0.18274 -1.50279,-0.40007 -0.15322,-0.51586 -0.25158,-2.37889 0.23709,-2.70478 0.77339,-0.51609 1.64443,0.26058 2.16146,-0.83464 0.19115,-0.40481 0.48231,-0.97495 0.28148,-1.42029 -0.23801,-0.52807 -1.20795,-0.98538 -0.92979,-1.65909 0.2189,-0.53031 1.48866,-1.94219 2.12291,-1.80697 1.31577,0.28037 1.27477,1.50158 2.83894,0.65652 0.9593,-0.51835 0.13072,-1.96637 0.9708,-2.33326 m -14.94456,4.84867 c 1.37234,-0.41383 1.96685,1.73528 0.58604,2.1081 -1.28065,0.3458 -1.82417,-1.73481 -0.58604,-2.1081 m 31.63811,-0.0142 c 1.39839,-0.3055 1.85712,1.75307 0.47177,2.12221 -1.35628,0.36144 -1.88755,-1.81291 -0.47177,-2.12221 m -15.76305,0.1224 c -5.1805,0.68224 -4.36777,8.49107 0.82953,7.8669 4.98093,-0.59834 4.08798,-8.51442 -0.82953,-7.8669 m -0.23709,0.69848 c 4.36422,-0.72858 5.20122,5.9503 0.82953,6.5574 -4.01629,0.55793 -4.86359,-5.88405 -0.82953,-6.5574 m -15.52254,7.12315 c 1.35132,-0.24849 1.78199,1.82073 0.47054,2.14697 -1.35427,0.33691 -1.8311,-1.89657 -0.47054,-2.14697 m 31.52095,0.002 c 1.37419,-0.3349 1.89539,1.85735 0.47214,2.14982 -1.40252,0.28821 -1.8775,-1.80722 -0.47214,-2.14982 m -19.55311,13.04394 c 1.40061,-0.0598 1.50313,2.13571 0.11808,2.21522 -1.41806,0.0814 -1.54937,-2.15418 -0.11808,-2.21522 m 7.93943,0.002 c 1.46804,-0.10513 1.58997,2.14567 0.11839,2.24393 -1.38594,0.0925 -1.53266,-2.14247 -0.11839,-2.24393 m -16.11683,10.72101 v -1.06656 h -3.31815 l -1.35057,-0.18992 -0.18992,-1.5876 h 4.85875 v -1.06656 h -4.85875 l 0.18992,-1.58763 1.35057,-0.18992 h 3.31817 v -1.06723 c -1.34229,0 -4.33947,-0.55745 -5.42422,0.32033 -0.44397,0.3593 -0.38237,0.9445 -0.38258,1.45728 -4e-4,1.07011 -0.51706,4.08702 0.48694,4.72957 1.20049,0.76839 3.92621,0.24757 5.31986,0.24757 m 9.71749,-6.63636 v 4.38472 c 0,0.55357 -0.15785,1.40715 0.18992,1.87905 0.71102,0.96439 3.82478,0.56917 4.9058,0.48007 0.44378,-0.0367 0.93155,-0.17944 1.16383,-0.59433 0.28426,-0.50741 0.13966,-1.32181 0.13966,-1.88327 v -4.26624 h -1.06656 v 3.79222 c 0,0.4554 0.14306,1.22438 -0.12178,1.62139 -0.41014,0.61467 -2.52581,0.27933 -3.19632,0.2747 -0.32295,-0.002 -0.74009,0.0324 -0.94475,-0.2747 -0.26484,-0.39701 -0.12178,-1.16599 -0.12178,-1.62139 v -3.79222 h -0.94805 m 2.72566,0 v 5.09577 h 0.94805 v -5.09577 h -0.94805 m 12.08759,0 v 3.9107 c 1.29159,0 3.01491,-0.30399 4.25924,0.0376 0.55529,0.15262 0.67701,1.16387 0.29104,1.54996 -0.28734,0.28734 -0.86462,0.18992 -1.23212,0.18992 h -3.31816 v 1.06653 c 1.34872,0 4.16619,0.53353 5.3061,-0.24757 0.81082,-0.55542 0.77965,-3.00413 -0.10452,-3.47661 -1.06536,-0.56929 -3.06775,-0.18652 -4.25341,-0.18652 v -2.84414 h -0.94805 m -19.435,5.45134 v 0.11839 h -3.55519 v 1.06656 h 3.67371 c 0.54558,-2.4e-4 1.29326,0.0601 1.73978,-0.32316 0.47461,-0.40731 0.0839,-0.79245 -0.31996,-1.00919 -0.93338,-0.50106 -1.94173,-1.09986 -2.96041,-1.39327 v -0.11839 h 3.67368 v -1.06656 h -3.79219 c -0.5392,2.7e-4 -1.28907,-0.0638 -1.72609,0.32316 -0.46503,0.41181 -0.10514,0.78832 0.30645,1.00919 0.93319,0.50118 1.94179,1.09986 2.96035,1.39327 m 17.89441,1.30359 v -1.06656 h -3.19968 c -0.40161,0 -1.03253,0.11315 -1.38437,-0.12178 -0.4431,-0.29567 -0.39118,-1.34635 0.0983,-1.56784 0.68352,-0.30917 1.84797,-0.0879 2.58957,-0.0879 v 0.11839 l -1.89609,1.06656 v 0.11839 c 1.63893,0 2.38945,-0.52261 3.79219,-1.30358 -0.40765,-1.54743 -2.66862,-1.06857 -3.91067,-1.06653 -0.57737,9.2e-4 -1.32147,-0.0308 -1.70615,0.49107 -0.66968,0.90858 -0.3343,3.18818 0.87658,3.38346 0.61434,0.0993 1.2755,0.0361 1.8961,0.0361 z"
       id="path1120" />
  </g>
</svg>
